{"title":"The Violent Kind *2010* [DVDRip.XviD-miguel] [ENG]","uid":6379934,"size":735183996,"categoryP":"video","categoryS":"movies","magnet":"?xt=urn:btih:6779456162fe5660dea82c5b913708bd118ebc3a&amp;dn=The+Violent+Kind+%2A2010%2A+%5BDVDRip.XviD-miguel%5D+%5BENG%5D&amp;tr=udp%3A%2F%2Ftracker.openbittorrent.com%3A80&amp;tr=udp%3A%2F%2Fopen.demonii.com%3A1337&amp;tr=udp%3A%2F%2Ftracker.coppersurfer.tk%3A6969&amp;tr=udp%3A%2F%2Fexodus.desync.com%3A6969","seeders":2,"leechers":1,"uploader":"miguel1983","files":-1,"time":1304994945,"description":" &lt;a href=&quot;http://img854.imageshack.us/img854/8320/theviolentkind.jpg&quot; rel=&quot;nofollow&quot; target=&quot;_NEW&quot;&gt;http://img854.imageshack.us/img854/8320/theviolentkind.jpg&lt;/a&gt;\n\nCountry.......: USA\nGenre.........: Horror\nDate release..: 25.01.2010 [World]\nDirector......: Mitchell Altieri, Phil Flores\nWriters.......: Phil Flores, Phil Flores\nDuration......: 89 min.\nMore..........: http://www.imdb.com/title/tt1472195\nTrailer.......: http://www.imdb.com/video/imdb/vi2302385433\nTrailer.......:\n\nPilot :\nOne night at a secluded farmhouse deep in the Northern California woods, a small group of hardened young bikers and their girlfriends are tormented when one of the girls becomes savagely possessed and a gang of &quot;Rockabillies&quot; seemingly from the 1950's descends upon them to collect what is growing inside her.\n\nCats :\nCory Knauf   \t ...  \tCody\nTaylor Cole \t... \tShade\nBret Roberts \t... \tQ\nChristina Prousalis \t... \tMegan\nTiffany Shepis \t... \tMichelle\nNick Tagas \t... \tElroy\nJoe Egender \t... \tVernon\nJoseph McKelheer \t... \tJazz\nSamuel Child \t... \tMurderball\nMackenzie Firgens \t... \tTrixie\nIlea Matthews \t... \tPussywagon\nTerry Wayne \t... \tDave\nDavid Fine \t... \tGin\nGigi Benson \t... \tPedestrian\nErik Braa \t... \tDriver\n\nData Technical :\n!!! SAMPLE !!!\nAudio.....: English\nSubtitles.: None\nFormat                           : AVI\nFormat/Info                      : Audio Video Interleave\nFile size                        : 699 MiB\nDuration                         : 1h 28mn\nOverall bit rate                 : 1 101 Kbps\nWriting application              : Nandub v1.0rc2\nWriting library                  : Nandub build 1852/release\nVideo\nID                               : 0\nFormat                           : MPEG-4 Visual\nFormat profile                   : Advanced Simple@L5\nFormat settings, BVOP            : Yes\nFormat settings, QPel            : No\nFormat settings, GMC             : No warppoints\nFormat settings, Matrix          : Default (H.263)\nCodec ID                         : XVID\nCodec ID/Hint                    : XviD\nDuration                         : 1h 28mn\nBit rate                         : 772 Kbps\nWidth                            : 608 pixels\nHeight                           : 336 pixels\nDisplay aspect ratio             : 16:9\nFrame rate                       : 23.976 fps\nColor space                      : YUV\nChroma subsampling               : 4:2:0\nBit depth                        : 8 bits\nScan type                        : Progressive\nBits/(Pixel*Frame)               : 0.158\nStream size                      : 490 MiB (70%)\nWriting library                  : XviD 63\nAudio\nID                               : 1\nFormat                           : AC-3\nFormat/Info                      : Audio Coding 3\nMode extension                   : CM (complete main)\nCodec ID                         : 2000\nDuration                         : 1h 28mn\nBit rate mode                    : Constant\nBit rate                         : 320 Kbps\nChannel(s)                       : 6 channels\nChannel positions                : Front: L C R, Side: L R, LFE\nSampling rate                    : 48.0 KHz\nBit depth                        : 16 bits\nVideo delay                      : 500ms\nStream size                      : 203 MiB (29%)\nAlignment                        : Split accross interleaves\nInterleave, duration             : 42 ms (1.00 video frame)\nInterleave, preload duration     : 500 ms\n\nScreen : &lt;a href=&quot;\nhttp://img707.imageshack.us/img707/8674/theviolentkind2010s1.jpg&quot; rel=&quot;nofollow&quot; target=&quot;_NEW&quot;&gt;\nhttp://img707.imageshack.us/img707/8674/theviolentkind2010s1.jpg&lt;/a&gt; &lt;a href=&quot;\nhttp://img703.imageshack.us/img703/8044/theviolentkind2010s2.jpg&quot; rel=&quot;nofollow&quot; target=&quot;_NEW&quot;&gt;\nhttp://img703.imageshack.us/img703/8044/theviolentkind2010s2.jpg&lt;/a&gt; &lt;a href=&quot;\nhttp://img29.imageshack.us/img29/1369/theviolentkind2010s3.jpg&quot; rel=&quot;nofollow&quot; target=&quot;_NEW&quot;&gt;\nhttp://img29.imageshack.us/img29/1369/theviolentkind2010s3.jpg&lt;/a&gt; &lt;a href=&quot;\nhttp://img194.imageshack.us/img194/7645/theviolentkind2010s4.jpg&quot; rel=&quot;nofollow&quot; target=&quot;_NEW&quot;&gt;\nhttp://img194.imageshack.us/img194/7645/theviolentkind2010s4.jpg&lt;/a&gt; &lt;a href=&quot;\nhttp://img864.imageshack.us/img864/8843/theviolentkind2010s5.jpg&quot; rel=&quot;nofollow&quot; target=&quot;_NEW&quot;&gt;\nhttp://img864.imageshack.us/img864/8843/theviolentkind2010s5.jpg&lt;/a&gt;","torrent":{"xt":"urn:btih:6779456162fe5660dea82c5b913708bd118ebc3a","amp;dn":"The+Violent+Kind+%2A2010%2A+%5BDVDRip.XviD-miguel%5D+%5BENG%5D","amp;tr":["udp%3A%2F%2Ftracker.openbittorrent.com%3A80","udp%3A%2F%2Fopen.demonii.com%3A1337","udp%3A%2F%2Ftracker.coppersurfer.tk%3A6969","udp%3A%2F%2Fexodus.desync.com%3A6969"],"infoHash":"6779456162fe5660dea82c5b913708bd118ebc3a","infoHashBuffer":{"type":"Buffer","data":[103,121,69,97,98,254,86,96,222,168,44,91,145,55,8,189,17,142,188,58]},"announce":[],"urlList":[]}}